#!OML:ASF X:\für Bonn\!DataBase\2005_08_10_Bjorn_Final\c3d\bjorn.ASF
:FULLY-SPECIFIED
:DEGREES
46
root -2.92508 18.8957 15.1892 -530.873 11.5256 -536.169
lowerback 16.4838 3.4132 -8.29522
upperback 17.5627 9.54909 -5.48222
thorax 10.5156 6.22924 -1.78019
lowerneck -1.08789 -0.98217 2.38956
upperneck -18.4818 -1.97213 3.77699
head -5.37135 -1.99372 0.926602
rclavicle -1.90833e-014 6.67916e-014
rhumerus -10.5786 10.0753 -101.387
rradius 69.2107
rwrist 12.5228
rhand -33.5685 18.7193
rfingers 7.12502
rthumb -6.763 -11.1526
lclavicle -1.90833e-014 6.67916e-014
lhumerus 4.31365 -29.5549 81.0036
lradius 36.0908
lwrist 26.4857
lhand -29.5481 3.46048
lfingers 7.12502
lthumb -2.88108 33.4208
rfemur 339.043 -7.50257 -345.07
rtibia 41.0346
rfoot -19.2093 7.97491
rtoes -18.3225
lfemur -30.5127 1.62939 -10.678
ltibia 39.268
lfoot -12.4807 -5.38267
ltoes -11.3669
47
root -2.91275 18.8871 15.2363 -530.967 11.7999 -536.25
lowerback 16.3071 3.46641 -8.3014
upperback 17.5098 9.59303 -5.49564
thorax 10.5429 6.23475 -1.7782
lowerneck -0.874819 -0.936904 2.51063
upperneck -18.6631 -1.92813 3.57102
head -5.46814 -1.97508 0.845808
rclavicle -4.77083e-014 -1.59028e-014
rhumerus -10.2278 10.608 -101.45
rradius 69.6944
rwrist 12.7054
rhand -34.0451 18.9668
rfingers 7.12502
rthumb -7.22309 -10.8899
lclavicle -4.77083e-014 -1.59028e-014
lhumerus 4.35073 -30.7339 80.8389
lradius 36.0403
lwrist 25.7222
lhand -29.98 4.06183
lfingers 7.12502
lthumb -3.2981 34.0161
rfemur 339.56 -7.99037 -345.009
rtibia 40.5486
rfoot -19.6238 7.82714
rtoes -18.2819
lfemur -30.5386 1.53632 -10.6601
ltibia 39.3376
lfoot -12.4186 -5.14341
ltoes -11.102
48
root -2.90036 18.8785 15.2815 -531.072 12.07 -536.348
lowerback 16.1309 3.51857 -8.30938
upperback 17.4433 9.62288 -5.49741
thorax 10.5492 6.22961 -1.76329
lowerneck -0.814533 -0.88109 2.56177
upperneck -18.6786 -1.86797 3.42164
head -5.48559 -1.93872 0.788685
rclavicle -4.29375e-014 5.48646e-014
rhumerus -9.90129 11.136 -101.491
rradius 70.1852
rwrist 12.818
rhand -34.5014 19.2297
rfingers 7.12502
rthumb -7.66357 -10.6115
lclavicle -4.29375e-014 5.48646e-014
lhumerus 4.34593 -31.924 80.7164
lradius 36.0529
lwrist 24.7993
lhand -30.4351 4.77316
lfingers 7.12502
lthumb -3.73766 34.7201
rfemur 340.041 -8.56549 -344.962
rtibia 40.048
rfoot -20.0042 7.75601
rtoes -18.2066
lfemur -30.5697 1.43288 -10.663
ltibia 39.4338
lfoot -12.3924 -4.86729
ltoes -10.9539
49
root -2.88779 18.869 15.3265 -531.199 12.3473 -536.433
lowerback 15.973 3.57227 -8.30918
upperback 17.3683 9.64123 -5.4765
thorax 10.5295 6.21595 -1.73107
lowerneck -0.913824 -0.821473 2.56448
upperneck -18.5318 -1.81157 3.25312
head -5.42461 -1.89113 0.729159
rclavicle -2.94201e-014 5.56597e-015
rhumerus -9.56359 11.6721 -101.522
rradius 70.6336
rwrist 12.9348
rhand -34.9429 19.491
rfingers 7.12502
rthumb -8.08962 -10.3342
lclavicle -2.94201e-014 5.56597e-015
lhumerus 4.34389 -33.1786 80.5723
lradius 36.1151
lwrist 23.7122
lhand -30.8044 5.64037
lfingers 7.12502
lthumb -4.0943 35.5808
rfemur 340.507 -9.15429 -344.899
rtibia 39.5288
rfoot -20.4119 7.64575
rtoes -18.6552
lfemur -30.5801 1.32309 -10.6467
ltibia 39.5582
lfoot -12.3759 -4.58714
ltoes -10.8028
50
root -2.87419 18.8545 15.3699 -531.353 12.6363 -536.515
lowerback 15.8133 3.62661 -8.28579
upperback 17.2826 9.65945 -5.46635
thorax 10.5021 6.20543 -1.72351
lowerneck -1.09593 -0.751065 2.56708
upperneck -18.2874 -1.73633 3.11903
head -5.31892 -1.83188 0.677427
rclavicle -9.54166e-015 2.22639e-014
rhumerus -9.22054 12.184 -101.565
rradius 71.0421
rwrist 13.0111
rhand -35.3865 19.8119
rfingers 7.12502
rthumb -8.51776 -9.99633
lclavicle -9.54166e-015 2.22639e-014
lhumerus 4.30791 -34.3817 80.4529
lradius 36.1991
lwrist 22.4325
lhand -31.0262 6.59345
lfingers 7.12502
lthumb -4.30846 36.5296
rfemur 340.979 -9.81093 -344.833
rtibia 38.9663
rfoot -20.7583 7.62057
rtoes -19.2507
lfemur -30.581 1.17603 -10.6155
ltibia 39.7376
lfoot -12.4148 -4.27458
ltoes -10.5552
51
root -2.86102 18.8355 15.4128 -531.553 12.9152 -536.553
lowerback 15.6495 3.6647 -8.19792
upperback 17.2097 9.6632 -5.43894
thorax 10.4955 6.19343 -1.72842
lowerneck -1.27202 -0.688957 2.55116
upperneck -18.0006 -1.66423 3.01361
head -5.20075 -1.77176 0.637629
rclavicle -1.74931e-014 1.44715e-013
rhumerus -8.88543 12.7306 -101.606
rradius 71.4489
rwrist 13.0951
rhand -35.8648 20.1297
rfingers 7.12502
rthumb -8.97933 -9.65922
lclavicle -1.74931e-014 1.44715e-013
lhumerus 4.29246 -35.6756 80.2596
lradius 36.3286
lwrist 21.3359
lhand -31.1469 7.4528
lfingers 7.12502
lthumb -4.42502 37.3866
rfemur 341.485 -10.4699 -344.732
rtibia 38.3926
rfoot -21.0592 7.68084
rtoes -19.6141
lfemur -30.5405 1.05088 -10.5423
ltibia 39.9431
lfoot -12.4589 -3.95572
ltoes -10.5784
52
root -2.84689 18.8157 15.4544 -531.776 13.2153 -536.588
lowerback 15.4677 3.71129 -8.08827
upperback 17.1295 9.68161 -5.4237
thorax 10.495 6.19165 -1.75719
lowerneck -1.44502 -0.640079 2.59389
upperneck -17.6912 -1.6068 2.90169
head -5.07701 -1.7208 0.586786
rclavicle -2.22639e-014 4.45278e-014
rhumerus -8.53635 13.215 -101.659
rradius 71.8513
rwrist 13.2556
rhand -36.3269 20.4086
rfingers 7.12502
rthumb -9.42522 -9.36061
lclavicle -2.22639e-014 4.45278e-014
lhumerus 4.25612 -37.085 79.993
lradius 36.5607
lwrist 20.4073
lhand -31.2226 8.20501
lfingers 7.12502
lthumb -4.49812 38.1372
rfemur 341.991 -11.1424 -344.636
rtibia 37.8285
rfoot -21.3655 7.74293
rtoes -20.2572
lfemur -30.4729 0.94477 -10.4641
ltibia 40.1585
lfoot -12.5018 -3.67336
ltoes -10.397
53
root -2.83315 18.8 15.4947 -532.014 13.5033 -536.61
lowerback 15.2925 3.74481 -7.93388
upperback 17.0491 9.68539 -5.41092
thorax 10.4963 6.1881 -1.812
lowerneck -1.68918 -0.605652 2.66142
upperneck -17.3143 -1.56772 2.81713
head -4.92077 -1.67969 0.539951
rclavicle 2.54444e-014 -1.59028e-015
rhumerus -8.15054 13.6738 -101.699
rradius 72.2524
rwrist 13.3988
rhand -36.7593 20.6507
rfingers 7.12502
rthumb -9.84243 -9.09928
lclavicle 2.54444e-014 -1.59028e-015
lhumerus 4.25415 -38.5311 79.6772
lradius 36.8318
lwrist 19.6402
lhand -31.0903 8.70484
lfingers 7.12502
lthumb -4.37032 38.6398
rfemur 342.471 -11.8321 -344.551
rtibia 37.3135
rfoot -21.6589 7.93068
rtoes -20.6657
lfemur -30.3535 0.779914 -10.3671
ltibia 40.3429
lfoot -12.5799 -3.32064
ltoes -10.4791
54
root -2.8177 18.7888 15.5343 -532.294 13.7909 -536.615
lowerback 15.1146 3.76769 -7.77781
upperback 17.0029 9.68739 -5.37289
thorax 10.5374 6.18379 -1.83634
lowerneck -2.13085 -0.571367 2.66207
upperneck -16.4338 -1.55658 2.74738
head -5.11572 -1.63565 0.584679
rclavicle -2.54444e-014 4.69132e-014
rhumerus -7.71676 14.169 -101.661
rradius 72.6687
rwrist 13.4319
rhand -37.1165 20.9321
rfingers 7.12502
rthumb -10.187 -8.80122
lclavicle -2.54444e-014 4.69132e-014
lhumerus 4.309 -40.0015 79.2932
lradius 37.1988
lwrist 19.0944
lhand -30.7574 8.91083
lfingers 7.12502
lthumb -4.04891 38.8521
rfemur 342.96 -12.4006 -344.458
rtibia 36.8669
rfoot -21.9559 8.16603
rtoes -20.9413
lfemur -30.1599 0.637238 -10.2547
ltibia 40.4843
lfoot -12.6381 -2.98518
ltoes -10.4584
55
root -2.80284 18.7784 15.5717 -532.588 14.096 -536.618
lowerback 14.9317 3.79411 -7.60239
upperback 16.9428 9.68667 -5.3342
thorax 10.5658 6.17822 -1.87101
lowerneck -2.49655 -0.548698 2.69395
upperneck -15.9825 -1.53384 2.69907
head -4.87208 -1.60003 0.547499
rclavicle -2.3059e-014 5.32743e-014
rhumerus -7.28116 14.6064 -101.621
rradius 73.0388
rwrist 13.5111
rhand -37.3789 21.2364
rfingers 7.12502
rthumb -10.4402 -8.48437
lclavicle -2.3059e-014 5.32743e-014
lhumerus 4.34109 -41.4705 78.9109
lradius 37.6305
lwrist 18.6915
lhand -30.2326 8.90196
lfingers 7.12502
lthumb -3.54211 38.8523
rfemur 343.44 -12.7518 -344.4
rtibia 36.4926
rfoot -22.2818 8.44555
rtoes -20.5665
lfemur -29.9119 0.498047 -10.1469
ltibia 40.585
lfoot -12.6963 -2.64727
ltoes -10.6648
56
root -2.78707 18.7676 15.6091 -532.898 14.3873 -536.607
lowerback 14.7402 3.80659 -7.40193
upperback 16.9064 9.68146 -5.29029
thorax 10.6312 6.17474 -1.90917
lowerneck -3.00791 -0.530707 2.80354
upperneck -15.4798 -1.53728 2.58497
head -4.585 -1.57914 0.473748
rclavicle -1.16885e-013 2.22639e-014
rhumerus -6.78668 15.0265 -101.57
rradius 73.3672
rwrist 13.5387
rhand -37.6387 21.6111
rfingers 7.12502
rthumb -10.6907 -8.09694
lclavicle -1.16885e-013 2.22639e-014
lhumerus 4.44832 -42.8974 78.4829
lradius 38.1221
lwrist 18.3997
lhand -29.5963 8.85071
lfingers 7.12502
lthumb -2.92756 38.8104
rfemur 343.883 -12.9158 -344.347
rtibia 36.184
rfoot -22.4351 8.69857
rtoes -19.9437
lfemur -29.6375 0.385202 -10.0245
ltibia 40.6577
lfoot -12.7249 -2.34365
ltoes -10.7721
